<?xml version="1.0" encoding="UTF-8" standalone="no"?>
<!-- Created with Inkscape (http://www.inkscape.org/) -->

<svg
   xmlns:dc="http://purl.org/dc/elements/1.1/"
   xmlns:cc="http://creativecommons.org/ns#"
   xmlns:rdf="http://www.w3.org/1999/02/22-rdf-syntax-ns#"
   xmlns:svg="http://www.w3.org/2000/svg"
   xmlns="http://www.w3.org/2000/svg"
   xmlns:xlink="http://www.w3.org/1999/xlink"
   xmlns:sodipodi="http://sodipodi.sourceforge.net/DTD/sodipodi-0.dtd"
   xmlns:inkscape="http://www.inkscape.org/namespaces/inkscape"
   width="210mm"
   height="297mm"
   viewBox="0 0 744.09448819 1052.3622047"
   id="svg2"
   version="1.1"
   inkscape:version="0.91 r13725"
   sodipodi:docname="drawing.svg">
  <defs
     id="defs4">
    <linearGradient
       inkscape:collect="always"
       id="linearGradient4358">
      <stop
         style="stop-color:#e6e6e6;stop-opacity:1;"
         offset="0"
         id="stop4360" />
      <stop
         style="stop-color:#e6e6e6;stop-opacity:0;"
         offset="1"
         id="stop4362" />
    </linearGradient>
    <inkscape:path-effect
       effect="powerstroke"
       id="path-effect4334"
       is_visible="true"
       offset_points="0,0.5"
       sort_points="true"
       interpolator_type="CubicBezierJohan"
       interpolator_beta="0.2"
       start_linecap_type="zerowidth"
       linejoin_type="round"
       miter_limit="4"
       end_linecap_type="zerowidth"
       cusp_linecap_type="round" />
    <inkscape:path-effect
       effect="spiro"
       id="path-effect4332"
       is_visible="true" />
    <inkscape:path-effect
       effect="powerstroke"
       id="path-effect4247"
       is_visible="true"
       offset_points="0,0.52705515"
       sort_points="true"
       interpolator_type="CubicBezierJohan"
       interpolator_beta="0.2"
       start_linecap_type="zerowidth"
       linejoin_type="round"
       miter_limit="4"
       end_linecap_type="zerowidth"
       cusp_linecap_type="round" />
    <inkscape:path-effect
       effect="spiro"
       id="path-effect4245"
       is_visible="true" />
    <inkscape:path-effect
       cusp_linecap_type="round"
       end_linecap_type="zerowidth"
       miter_limit="4"
       linejoin_type="round"
       start_linecap_type="zerowidth"
       interpolator_beta="0.2"
       interpolator_type="Linear"
       sort_points="true"
       offset_points="0.063696389,2.9555791"
       is_visible="true"
       id="path-effect4241"
       effect="powerstroke" />
    <inkscape:path-effect
       is_visible="true"
       id="path-effect4239"
       effect="spiro" />
    <inkscape:path-effect
       cusp_linecap_type="round"
       end_linecap_type="zerowidth"
       miter_limit="4"
       linejoin_type="round"
       start_linecap_type="zerowidth"
       interpolator_beta="0.2"
       interpolator_type="Linear"
       sort_points="true"
       offset_points="0.063696389,2.1966958"
       is_visible="true"
       id="path-effect4235"
       effect="powerstroke" />
    <inkscape:path-effect
       is_visible="true"
       id="path-effect4233"
       effect="spiro" />
    <inkscape:path-effect
       cusp_linecap_type="round"
       end_linecap_type="zerowidth"
       miter_limit="4"
       linejoin_type="round"
       start_linecap_type="zerowidth"
       interpolator_beta="0.2"
       interpolator_type="Linear"
       sort_points="true"
       offset_points="0.063696389,2.0677609"
       is_visible="true"
       id="path-effect4229"
       effect="powerstroke" />
    <inkscape:path-effect
       is_visible="true"
       id="path-effect4227"
       effect="spiro" />
    <inkscape:path-effect
       effect="powerstroke"
       id="path-effect4223"
       is_visible="true"
       offset_points="0.063696389,2.9555791"
       sort_points="true"
       interpolator_type="Linear"
       interpolator_beta="0.2"
       start_linecap_type="zerowidth"
       linejoin_type="round"
       miter_limit="4"
       end_linecap_type="zerowidth"
       cusp_linecap_type="round" />
    <inkscape:path-effect
       effect="spiro"
       id="path-effect4221"
       is_visible="true" />
    <linearGradient
       inkscape:collect="always"
       xlink:href="#linearGradient4358"
       id="linearGradient4364"
       x1="333.70059"
       y1="243.87022"
       x2="331.48074"
       y2="183.76614"
       gradientUnits="userSpaceOnUse" />
    <linearGradient
       inkscape:collect="always"
       xlink:href="#linearGradient4358"
       id="linearGradient4379"
       gradientUnits="userSpaceOnUse"
       x1="333.70059"
       y1="243.87022"
       x2="331.48074"
       y2="183.76614" />
    <linearGradient
       inkscape:collect="always"
       xlink:href="#linearGradient4358"
       id="linearGradient4389"
       gradientUnits="userSpaceOnUse"
       x1="333.70059"
       y1="243.87022"
       x2="331.48074"
       y2="183.76614"
       gradientTransform="matrix(-1.0606296,0,0,0.26139012,566.36924,194.57656)" />
  </defs>
  <sodipodi:namedview
     id="base"
     pagecolor="#ffffff"
     bordercolor="#666666"
     borderopacity="1.0"
     inkscape:pageopacity="0.0"
     inkscape:pageshadow="2"
     inkscape:zoom="1.4142136"
     inkscape:cx="401.18692"
     inkscape:cy="812.04644"
     inkscape:document-units="px"
     inkscape:current-layer="layer1"
     showgrid="false"
     showguides="false"
     inkscape:window-width="1380"
     inkscape:window-height="846"
     inkscape:window-x="0"
     inkscape:window-y="0"
     inkscape:window-maximized="0" />
  <metadata
     id="metadata7">
    <rdf:RDF>
      <cc:Work
         rdf:about="">
        <dc:format>image/svg+xml</dc:format>
        <dc:type
           rdf:resource="http://purl.org/dc/dcmitype/StillImage" />
        <dc:title></dc:title>
      </cc:Work>
    </rdf:RDF>
  </metadata>
  <g
     inkscape:label="Layer 1"
     inkscape:groupmode="layer"
     id="layer1">
    <text
       xml:space="preserve"
       style="font-style:normal;font-variant:normal;font-weight:normal;font-stretch:normal;font-size:72px;line-height:125%;font-family:'Caesar Dressing';-inkscape-font-specification:'Caesar Dressing';text-align:center;letter-spacing:0px;word-spacing:0px;text-anchor:middle;fill:#000000;fill-opacity:1;stroke:none;stroke-width:1px;stroke-linecap:butt;stroke-linejoin:miter;stroke-opacity:1"
       x="429.50662"
       y="481.23407"
       id="text4136"
       sodipodi:linespacing="125%"
       inkscape:export-xdpi="90"
       inkscape:export-ydpi="90"><tspan
         sodipodi:role="line"
         id="tspan4138"
         x="439.98318"
         y="481.23407"
         style="font-style:normal;font-variant:normal;font-weight:normal;font-stretch:normal;font-family:Calligraffiti;-inkscape-font-specification:Calligraffiti"> </tspan><tspan
         sodipodi:role="line"
         x="429.50662"
         y="571.23407"
         style="font-style:normal;font-variant:normal;font-weight:normal;font-stretch:normal;font-family:Calligraffiti;-inkscape-font-specification:Calligraffiti"
         id="tspan4140">Phage Therapy</tspan></text>
    <text
       sodipodi:linespacing="125%"
       id="text4146"
       y="225.04584"
       x="203.78247"
       style="font-style:normal;font-variant:normal;font-weight:normal;font-stretch:normal;font-size:36.84214401px;line-height:125%;font-family:'Caesar Dressing';-inkscape-font-specification:'Caesar Dressing';text-align:center;letter-spacing:0px;word-spacing:0px;text-anchor:middle;fill:#000000;fill-opacity:1;stroke:none;stroke-width:1px;stroke-linecap:butt;stroke-linejoin:miter;stroke-opacity:1"
       xml:space="preserve"
       inkscape:export-xdpi="90"
       inkscape:export-ydpi="90"><tspan
         id="tspan4150"
         style="font-style:normal;font-variant:normal;font-weight:normal;font-stretch:normal;font-size:15.35089302px;font-family:Calligraffiti;-inkscape-font-specification:Calligraffiti"
         y="225.04584"
         x="203.78247"
         sodipodi:role="line">Fig. 2</tspan></text>
    <text
       xml:space="preserve"
       style="font-style:normal;font-variant:normal;font-weight:normal;font-stretch:normal;font-size:72px;line-height:125%;font-family:'Caesar Dressing';-inkscape-font-specification:'Caesar Dressing';text-align:center;letter-spacing:0px;word-spacing:0px;text-anchor:middle;fill:#000000;fill-opacity:1;stroke:none;stroke-width:1px;stroke-linecap:butt;stroke-linejoin:miter;stroke-opacity:1"
       x="245"
       y="428.07648"
       id="text4154"
       sodipodi:linespacing="125%"><tspan
         sodipodi:role="line"
         id="tspan4156"
         x="245"
         y="428.07648" /></text>
    <g
       style="font-style:normal;font-variant:normal;font-weight:normal;font-stretch:normal;font-size:72px;line-height:125%;font-family:'Caesar Dressing';-inkscape-font-specification:'Caesar Dressing';text-align:center;letter-spacing:0px;word-spacing:0px;text-anchor:middle;fill:#000000;fill-opacity:1;stroke:none;stroke-width:1px;stroke-linecap:butt;stroke-linejoin:miter;stroke-opacity:1"
       id="text4158"
       transform="matrix(0.94866736,0,0,0.94866736,196.95884,222.34516)">
      <g
         id="g4308"
         transform="translate(-133.42096,-30.560111)">
        <path
           inkscape:export-ydpi="90"
           inkscape:export-xdpi="90"
           sodipodi:nodetypes="ccccc"
           inkscape:connector-curvature="0"
           id="rect4257"
           d="m 295.47106,492.53006 158.26725,18.16573 -10.61151,76.54687 -159.3853,-9.96667 z"
           style="opacity:1;fill:#fff4ca;fill-opacity:0.82159627;fill-rule:nonzero;stroke:#e9ddaf;stroke-width:0;stroke-linecap:round;stroke-linejoin:round;stroke-miterlimit:4;stroke-dasharray:none;stroke-dashoffset:0;stroke-opacity:1" />
        <path
           inkscape:export-ydpi="90"
           inkscape:export-xdpi="90"
           sodipodi:nodetypes="sccsccscsccccsccccsccccscccccscsccccccscscccccscsscsscccccccccccc"
           inkscape:connector-curvature="0"
           id="path4167"
           style="font-style:normal;font-variant:normal;font-weight:normal;font-stretch:normal;font-family:Calligraffiti;-inkscape-font-specification:Calligraffiti"
           d="m 352.54913,531.63093 c 0,2.53125 -0.46875,4.92187 -1.40625,7.17187 -0.89062,2.25 -2.10937,4.35938 -3.65625,6.32813 -3.36082,4.01146 -7.18504,7.3818 -11.48254,9.6112 -6.15251,3.19175 -12.36069,4.68876 -17.4386,4.1285 -2.61609,6.32463 -7.54996,10.04549 -11.95313,13.10247 -2.8125,1.64063 -6.02417,0.86095 -9.25854,0.86095 -0.23437,0 -0.42187,-0.11719 -0.5625,-0.35156 -0.1875,-0.23437 -0.28125,-0.46875 -0.28125,-0.70313 0,-0.5625 0.25781,-0.89062 0.77344,-0.98437 0.9375,-0.23437 1.82812,-0.42187 2.67187,-0.5625 0.84375,-0.1875 1.73438,-0.46875 2.67188,-0.84375 2.15625,-0.9375 4.03125,-2.25 5.625,-3.9375 1.64063,-1.73437 3.07031,-3.65625 4.28906,-5.76563 1.21875,-2.10937 2.27344,-4.28906 3.16406,-6.53906 0.89063,-2.29687 1.6875,-4.47656 2.39063,-6.53906 0.60937,-1.875 1.17187,-3.77344 1.6875,-5.69531 0.5625,-1.92188 1.125,-3.82032 1.6875,-5.69532 0.5625,-1.92187 1.17187,-3.82031 1.82812,-5.69531 0.65625,-1.875 1.42969,-3.70312 2.32032,-5.48437 -1.3125,0.79687 -2.64844,1.52343 -4.00782,2.17968 -1.35937,0.60938 -2.69531,1.31251 -4.00781,2.10938 -0.9375,0.5625 -1.89844,1.19531 -2.88281,1.89844 -0.9375,0.65625 -1.82813,1.38281 -2.67188,2.17968 -0.84375,0.79688 -1.61718,1.66407 -2.32031,2.60157 -0.65625,0.89062 -1.19531,1.87499 -1.61719,2.95312 -0.1875,0.46875 -0.32812,0.9375 -0.42187,1.40625 -0.0469,0.42187 -0.11718,0.89062 -0.21094,1.40625 -0.0937,0.23437 -0.23437,0.42187 -0.42187,0.5625 -0.1875,0.0937 -0.375,0.14063 -0.5625,0.14063 -0.51563,0 -0.84375,-0.14063 -0.98438,-0.42188 -0.0937,-0.32813 -0.14062,-0.67969 -0.14062,-1.05469 0,-1.59375 0.30469,-3.09375 0.91406,-4.5 0.60937,-1.45312 1.38281,-2.78906 2.32031,-4.00781 0.98437,-1.26563 2.08594,-2.41406 3.30469,-3.44531 1.26563,-1.03125 2.53125,-1.94532 3.79687,-2.74219 2.10938,-1.35937 4.33594,-2.67187 6.67969,-3.9375 2.34375,-1.3125 4.6875,-2.36719 7.03125,-3.16406 l 0.14063,0 c 0.28125,0 0.5625,0.11719 0.84375,0.35156 0.32812,0.23437 0.49218,0.51562 0.49218,0.84375 0,0.0469 -0.0937,0.30468 -0.28125,0.77344 -0.14062,0.46875 -0.32812,0.98437 -0.5625,1.54687 -0.1875,0.5625 -0.39844,1.10156 -0.63281,1.61719 -0.1875,0.51563 -0.30469,0.84375 -0.35156,0.98438 0.84375,-0.79688 1.78125,-1.54688 2.8125,-2.25 1.03125,-0.75 2.10937,-1.40625 3.23437,-1.96875 1.125,-0.5625 2.27344,-1.00781 3.44532,-1.33594 1.21875,-0.32813 2.4375,-0.49219 3.65625,-0.49219 1.875,0 3.46875,0.39844 4.78125,1.19531 1.3125,0.79688 2.36719,1.82813 3.16406,3.09375 0.84375,1.26563 1.45312,2.69532 1.82812,4.28907 0.375,1.59375 0.5625,3.1875 0.5625,4.78125 z m -25.65971,-0.86576 c -0.23438,0.28126 0.20659,0.84231 -0.0746,1.21731 -0.23437,0.32813 -0.44531,0.65625 -0.63281,0.98437 -0.23438,0.51563 -0.49219,1.26563 -0.77344,2.25 -0.23437,0.9375 -0.44531,1.71094 -0.63281,2.32032 -0.51563,1.6875 -0.58411,3.21021 -1.14661,4.94458 l -1.6875,5.0625 c -0.46875,1.3125 -0.96094,2.625 -1.47656,3.9375 -0.46875,1.26563 -0.70203,1.91949 -1.26453,3.18511 3.53432,0.77399 6.67878,-0.28057 9.55784,-1.69363 24.71828,-18.61225 18.06973,-34.17188 -1.33652,-22.64064 z" />
        <path
           inkscape:export-ydpi="90"
           inkscape:export-xdpi="90"
           sodipodi:nodetypes="ccsccssccsscccccscscscccsc"
           inkscape:connector-curvature="0"
           id="path4169"
           style="font-style:normal;font-variant:normal;font-weight:normal;font-stretch:normal;font-family:Calligraffiti;-inkscape-font-specification:Calligraffiti"
           d="m 372.23663,567.63093 c 0,0.23437 -0.0937,0.44531 -0.28125,0.63281 -0.75,0.70313 -1.66406,1.5 -2.74218,2.39062 -1.07813,0.89063 -2.22657,1.71094 -3.44532,2.46094 -1.17187,0.75 -2.39062,1.38281 -3.65625,1.89844 -1.21875,0.51563 -2.34375,0.77344 -3.375,0.77344 -1.5,0 -2.67187,-0.375 -3.51562,-1.125 -0.84375,-0.75 -1.5,-1.66406 -1.96875,-2.74219 -0.42187,-1.125 -0.70312,-2.32031 -0.84375,-3.58594 -0.0937,-1.3125 -0.14063,-2.53125 -0.14063,-3.65625 0,-2.625 0.25781,-5.20312 0.77344,-7.73437 0.51563,-2.53125 1.07813,-5.0625 1.6875,-7.59375 1.17187,-4.92188 2.57812,-9.72657 4.21875,-14.41407 1.6875,-4.6875 3.79688,-9.23437 6.32813,-13.64062 l 1.40625,-2.53125 c 0.51562,-0.84375 1.05468,-1.64063 1.61718,-2.39063 0.1875,-0.28125 0.44531,-0.42187 0.77344,-0.42187 0.28125,0 0.53907,0.0937 0.77344,0.28125 0.28125,0.1875 0.42187,0.44531 0.42187,0.77344 0,0.14062 -0.0234,0.25781 -0.0703,0.35156 -2.10937,5.4375 -4.28906,10.85156 -6.53906,16.24219 -2.25,5.39062 -4.07813,10.92187 -5.48438,16.59375 -0.65625,2.53125 -1.26562,5.10937 -1.82812,7.73437 -1.45423,9.49914 5.54025,12.9489 14.76562,8.57813 0.28125,0 0.53907,0.11719 0.77344,0.35156 0.23437,0.23437 0.35156,0.49219 0.35155,0.77344 z" />
        <path
           inkscape:export-ydpi="90"
           inkscape:export-xdpi="90"
           sodipodi:nodetypes="cccscccccccscccsccscccscsccccccccssccccsccccscssccccccccscc"
           inkscape:connector-curvature="0"
           id="path4171"
           style="font-style:normal;font-variant:normal;font-weight:normal;font-stretch:normal;font-family:Calligraffiti;-inkscape-font-specification:Calligraffiti"
           d="m 401.90851,561.23249 c -1.21875,2.48437 -2.48438,4.71094 -3.79688,6.67969 -1.3125,1.92187 -3.02344,3.79687 -5.13281,5.625 -1.03125,0.9375 -2.20312,1.40625 -3.51562,1.40625 -0.70313,0 -1.38282,-0.21094 -2.03907,-0.63282 -0.60937,-0.375 -1.03125,-0.91406 -1.26562,-1.61718 -0.0937,-0.23438 -0.16407,-0.56251 -0.21094,-0.98438 0,-0.42187 -0.0234,-0.86719 -0.0703,-1.33594 l 0,-1.33593 c 0.0469,-0.46875 0.0703,-0.84375 0.0703,-1.125 -1.64063,1.96875 -3.58594,3.63281 -5.83594,4.99218 -2.20312,1.40625 -4.64062,2.10938 -7.3125,2.10938 -0.14062,0 -0.35156,-0.0469 -0.63281,-0.14063 -0.23437,-0.0937 -0.42187,-0.16406 -0.5625,-0.21093 -1.07813,-0.51563 -1.89844,-1.33594 -2.46094,-2.46094 -0.51562,-1.125 -0.77343,-2.25 -0.77343,-3.375 0,-1.54687 0.1875,-3.07031 0.5625,-4.57031 0.42187,-1.54688 0.96093,-3.02344 1.61718,-4.42969 0.70313,-1.45313 1.5,-2.83594 2.39063,-4.14844 0.89063,-1.3125 1.82813,-2.55469 2.8125,-3.72656 2.53125,-3.14063 5.4375,-5.85938 8.71875,-8.15625 3.28125,-2.34375 6.84375,-4.21875 10.6875,-5.625 0.0469,-0.0469 0.14062,-0.0703 0.28125,-0.0703 0.32813,0 0.5625,0.11719 0.70312,0.35156 0.1875,0.23437 0.28125,0.49219 0.28125,0.77344 0,0.42187 -0.16406,0.70312 -0.49218,0.84375 -0.79688,0.42187 -1.59376,0.82031 -2.39063,1.19531 -0.75,0.32813 -1.5,0.70313 -2.25,1.125 -5.20313,3 -9.58594,6.84375 -13.14844,11.53125 -0.70312,0.9375 -1.42968,1.99219 -2.17968,3.16406 -8.37697,20.76135 10.15753,2.48527 15.53905,-8.15625 0.32813,-0.84375 0.70313,-1.82812 1.125,-2.95312 0.46875,-1.125 0.91406,-2.08594 1.33594,-2.88282 0.1875,-0.32812 0.49219,-0.49218 0.91406,-0.49218 0.32813,0 0.60938,0.0937 0.84375,0.28125 0.23437,0.1875 0.35156,0.44531 0.35156,0.77343 l -0.0703,0.14063 c -0.375,1.6875 -0.79688,3.39844 -1.26563,5.13281 -0.46875,1.6875 -0.98437,3.35156 -1.54687,4.99219 -0.23437,0.65625 -0.51562,1.38281 -0.84375,2.17969 -0.32813,0.79687 -0.58594,1.47656 -0.77344,2.03906 -0.0937,0.32813 -0.16406,0.65625 -0.21094,0.98437 0,0.32813 -0.0234,0.65625 -0.0703,0.98438 -0.14063,0.75 -0.30469,1.5 -0.49219,2.25 -0.14062,0.70313 -0.30468,1.42969 -0.49218,2.17969 -0.23438,0.9375 -0.44532,1.89844 -0.63282,2.88281 -0.14062,0.9375 -0.21093,1.89844 -0.21093,2.88281 l 0,0.63281 c 0,0.1875 0.0234,0.375 0.0703,0.5625 0.32813,0 0.70313,-0.14062 1.125,-0.42187 0.46875,-0.28125 0.9375,-0.60938 1.40625,-0.98438 0.46875,-0.42187 0.89062,-0.84375 1.26562,-1.26562 l 0.98438,-0.98438 c 1.40625,-1.5 2.74218,-3.16406 4.00781,-4.99218 0.32813,-0.375 0.60938,-0.77344 0.84375,-1.19532 0.28125,-0.46875 0.58594,-0.89062 0.91406,-1.26562 0.14063,-0.23437 0.35157,-0.35156 0.63282,-0.35156 0.32812,0 0.60937,0.11719 0.84375,0.35156 0.23437,0.23437 0.35156,0.51562 0.35156,0.84374 z" />
        <path
           inkscape:export-ydpi="90"
           inkscape:export-xdpi="90"
           sodipodi:nodetypes="cccccccccscccsccccccssccsccccsccsccccccccscsccccccscc"
           inkscape:connector-curvature="0"
           id="path4173"
           style="font-style:normal;font-variant:normal;font-weight:normal;font-stretch:normal;font-family:Calligraffiti;-inkscape-font-specification:Calligraffiti"
           d="m 435.65851,539.15436 c 0,0.1875 -0.0234,0.32813 -0.0703,0.42188 -1.78125,4.78125 -3.67969,9.46875 -5.69532,14.0625 -2.01562,4.54687 -3.91406,9.21094 -5.69531,13.99219 -0.89063,2.29687 -1.6875,4.59375 -2.39062,6.89062 -0.65625,2.29687 -1.3125,4.64062 -1.96875,7.03125 -0.14063,0.51563 -0.30469,0.98438 -0.49219,1.40625 -0.14063,0.46875 -0.30469,0.96094 -0.49219,1.47656 -0.5625,1.73438 -1.14844,3.42188 -1.75781,5.0625 -0.60937,1.6875 -1.3125,3.32813 -2.10938,4.92188 -0.79687,1.59375 -1.71093,3.09375 -2.74218,4.5 -1.03125,1.45313 -2.20313,2.69531 -3.51563,3.72656 -1.3125,1.07813 -2.74219,1.92188 -4.28906,2.53125 -1.54687,0.65625 -3.46534,0.0949 -5.0625,0.98438 -1.71022,0.95242 -3.42005,0.92225 -5.34375,-1.05469 -1.6875,-0.65625 -3.23438,-1.57032 -4.64063,-2.74219 -1.97966,-0.44734 -3.94547,-0.95151 -3.72656,-4.07812 -2.19319,-1.54688 -2.32773,-3.23438 -2.95312,-5.0625 -4.83045,-0.35191 -0.14063,-0.35156 -0.14063,-0.49219 -5.4024,-4.86817 -4.93721,-4.85746 0.35156,-0.84375 -0.58218,-4.24622 0.49219,-0.21094 0.77344,-0.21094 0.1875,0 0.3903,0.38174 0.49219,0.21094 1.9224,-3.22247 1.98959,-2.98749 0.35156,0.42187 0.32813,0.51563 0.63281,1.05469 0.91406,1.61719 0.90529,1.81128 2.61749,2.95813 4.07126,4.0652 6.18119,4.70706 16.90593,3.64495 20.67874,-2.16676 1.54688,-2.48437 2.88282,-5.22656 4.00782,-8.22656 1.07812,-2.90625 1.99218,-5.88282 2.74218,-8.92969 0.79688,-3 1.59376,-5.8125 2.39063,-8.4375 -0.5625,0.51563 -1.24219,1.07813 -2.03906,1.6875 -0.79688,0.60937 -1.61719,1.17187 -2.46094,1.6875 -0.84375,0.5625 -1.71094,1.03125 -2.60156,1.40625 -0.84375,0.375 -1.61719,0.5625 -2.32032,0.5625 -1.35937,0 -2.60156,-0.44531 -3.72656,-1.33594 -1.07813,-0.89063 -1.75781,-2.08594 -2.03906,-3.58594 -0.23437,-0.9375 -0.375,-1.80469 -0.42188,-2.60156 -0.0937,-1.45313 -0.0469,-2.97656 0.14063,-4.57031 0.23437,-1.64063 0.53906,-3.25781 0.91406,-4.85156 0.42187,-1.64063 0.89062,-3.21094 1.40625,-4.71094 0.51563,-1.54687 1.05469,-2.95312 1.61719,-4.21875 1.17187,-2.71875 2.4375,-5.39063 3.79687,-8.01563 0.28125,-0.51562 0.53907,-1.05468 0.77344,-1.61718 0.23437,-0.5625 0.51562,-1.10156 0.84375,-1.61719 0.1875,-0.28125 0.46875,-0.42188 0.84375,-0.42188 0.23437,0 0.49219,0.14063 0.77344,0.42188 1.32213,0.67528 0.47441,5.49811 -0.0886,7.59375 -4.9128,21.51674 0.86243,25.42508 10.21361,9.28125 1.40625,-3.23437 2.92968,-6.39844 4.57031,-9.49219 0.65625,-1.21875 1.3125,-2.46093 1.96875,-3.72656 0.65625,-1.3125 1.35938,-2.55469 2.10938,-3.72656 0.1875,-0.32813 0.46875,-0.49219 0.84375,-0.49219 0.32812,0 0.58593,0.14062 0.77343,0.42187 0.23438,0.23438 0.37501,0.51563 0.42186,0.84375 z" />
        <path
           inkscape:export-ydpi="90"
           inkscape:export-xdpi="90"
           sodipodi:nodetypes="ccc"
           inkscape:connector-curvature="0"
           id="path4205"
           d="m 295.88687,492.24906 c -2.62668,26.8446 -12.92067,53.77 -12.60276,85.05907 8.92853,-33.88147 15.42147,-50.94251 12.60276,-85.05907 z"
           style="fill:#000000;fill-rule:evenodd;stroke:#000000;stroke-width:1.15448236px;stroke-linecap:butt;stroke-linejoin:miter;stroke-opacity:1" />
        <path
           inkscape:export-ydpi="90"
           inkscape:export-xdpi="90"
           style="fill:#000000;fill-rule:evenodd;stroke:#000000;stroke-width:1.08864975px;stroke-linecap:butt;stroke-linejoin:miter;stroke-opacity:1"
           d="m 453.71263,512.54329 c -2.71411,23.90803 -20.5333,68.19583 -10.69553,70.70026 2.42924,-20.3413 14.64978,-39.30022 10.69553,-70.70026 z"
           id="path4207"
           inkscape:connector-curvature="0"
           sodipodi:nodetypes="ccc" />
        <path
           inkscape:export-ydpi="90"
           inkscape:export-xdpi="90"
           sodipodi:nodetypes="ccc"
           inkscape:connector-curvature="0"
           id="path4209"
           d="m 445.65079,509.55671 c -42.65516,-2.60115 -85.43868,-12.79506 -135.15595,-12.48024 53.83649,8.84173 80.94591,15.27154 135.15595,12.48024 z"
           style="fill:#000000;fill-rule:evenodd;stroke:#000000;stroke-width:1.44818151px;stroke-linecap:butt;stroke-linejoin:miter;stroke-opacity:1" />
        <path
           inkscape:export-ydpi="90"
           inkscape:export-xdpi="90"
           style="fill:#000000;fill-rule:evenodd;stroke:#000000;stroke-width:1.18286371px;stroke-linecap:butt;stroke-linejoin:miter;stroke-opacity:1"
           d="m 432.91745,587.18029 c -42.68318,-1.73422 -85.4948,-8.53062 -135.24472,-8.32072 53.87185,5.89488 80.99907,10.18172 135.24472,8.32072 z"
           id="path4211"
           inkscape:connector-curvature="0"
           sodipodi:nodetypes="ccc" />
        <path
           inkscape:export-ydpi="90"
           inkscape:export-xdpi="90"
           sodipodi:nodetypes="cssssssc"
           inkscape:connector-curvature="0"
           inkscape:original-d="m 349.91052,501.27684 c 0,0 16.20791,5.20921 18.65495,-16.68498 0.23655,-2.11645 4.59925,-33.51463 -12.24534,-16.10529 -13.03185,13.46876 8.73366,0.25351 1.73032,10.38192 -3.18602,4.60771 5.38539,9.38134 2.26273,5.85646 -3.12298,-3.52525 -4.65857,-7.58677 -6.25578,-2.79513 -1.59722,4.79166 -9.58331,7.71989 -3.72684,6.38888 2.86719,-0.65163 -7.32058,-11.57983 -7.32058,-11.57983"
           inkscape:path-effect="#path-effect4221;#path-effect4223"
           id="path4219"
           d="m 349.91052,501.27684 c 0.82322,0.76982 1.69378,1.50786 2.60883,2.21135 8.20777,-3.19554 15.06461,-9.68356 18.65052,-17.72296 1.08008,-2.48273 1.92113,-5.24828 2.06178,-8.16934 0.14098,-2.92304 -0.44975,-6.04156 -2.10524,-8.69917 -1.65377,-2.65574 -4.42108,-4.78797 -7.69872,-5.33546 -1.63572,-0.2554 -3.35058,-0.10779 -4.93075,0.48742 -1.58014,0.59507 -3.00413,1.6369 -4.02241,3.01973 -1.60447,2.1456 -2.04742,4.90605 -1.53275,7.34453 0.51604,2.44295 1.93949,4.54831 3.71933,6.05147 1.36924,1.1365 1.8914,1.3021 2.39656,2.01599 0.19208,0.2361 0.26184,0.44352 0.28743,0.54614 0.0381,0.0644 0.0427,0.0957 0.0716,0.13665 0.0365,0.0411 0.024,0.0537 0.0672,0.0861 0.0323,0.0266 -0.002,0.0787 -0.0698,0.1161 -0.0735,0.038 -0.19124,0.0562 -0.34387,0.039 -0.30815,-0.0729 -0.64927,-0.27204 -1.08915,-0.61889 -0.36297,-0.28651 -0.96163,-0.8258 -1.51815,-1.19847 -0.61261,-0.41085 -1.41678,-0.79751 -2.33404,-0.81878 -1.04281,-0.0291 -1.98138,0.43299 -2.63745,1.05265 -0.65698,0.62136 -1.06303,1.40653 -1.30374,2.15826 -0.46427,1.34763 -0.49671,3.10283 -0.68597,4.16794 -0.32664,1.75189 -1.19153,3.41486 -2.45738,4.6996 -1.26555,1.28443 -2.93163,2.18934 -4.72024,2.55033 -1.78817,0.3609 -3.69683,0.17693 -5.40082,-0.53247 -1.70357,-0.70923 -3.19939,-1.9431 -4.22661,-3.50192 -1.02697,-1.55843 -1.58277,-3.43859 -1.56204,-5.32639 0.0207,-1.88734 0.61821,-3.77727 1.70337,-5.34785 1.08488,-1.57019 2.6542,-2.81595 4.45187,-3.51851 1.79723,-0.70238 3.81639,-0.85884 5.72007,-0.43102 -1.88651,-0.49623 -3.93178,-0.41845 -5.79347,0.23257 -1.86124,0.65086 -3.53049,1.8721 -4.72214,3.47001 -1.19135,1.59751 -1.89922,3.5638 -1.99421,5.57597 -0.095,2.01166 0.42341,4.05841 1.48114,5.79749 1.05747,1.73866 2.64808,3.15966 4.51678,4.0184 1.86824,0.85853 4.00293,1.14965 6.05309,0.81282 2.04966,-0.33674 4.00132,-1.29899 5.52771,-2.73941 1.52601,-1.44007 2.61627,-3.34806 3.08048,-5.41642 0.37118,-1.59966 0.32644,-2.64621 0.81464,-3.85101 0.23289,-0.52639 0.54097,-0.94988 0.91064,-1.22581 0.37189,-0.27599 0.78174,-0.37798 1.10124,-0.32209 0.28254,0.0527 0.61341,0.22966 0.9661,0.53626 0.41044,0.35544 0.65667,0.66921 1.1871,1.20074 0.45784,0.4585 1.08716,1.01895 1.91368,1.35809 0.41388,0.18856 0.89762,0.32796 1.4272,0.3521 0.52908,0.0238 1.11051,-0.068 1.66251,-0.33793 0.57073,-0.28051 1.04061,-0.71322 1.37671,-1.21718 0.33632,-0.5038 0.53778,-1.07001 0.62088,-1.63378 0.13166,-1.13193 -0.20513,-2.18634 -0.6731,-2.9999 -0.83682,-1.39675 -2.4955,-2.58012 -3.02717,-3.07722 -1.13629,-1.0367 -1.90837,-2.36462 -2.13797,-3.71669 -0.22951,-1.35633 0.11092,-2.72992 0.86391,-3.65115 0.49591,-0.58701 1.18824,-1.03545 1.95149,-1.26703 0.76284,-0.23173 1.61023,-0.25711 2.42089,-0.0767 1.61409,0.32324 3.14232,1.48959 4.06716,3.08197 0.92421,1.5896 1.29332,3.58477 1.13487,5.62224 -0.15824,2.03967 -0.81734,4.10498 -1.77907,6.15328 -3.02203,6.62699 -8.77223,11.97312 -15.56572,14.55332 -0.10557,1.09634 -0.26641,2.19945 -0.48483,3.30503 z"
           style="fill:#000000;fill-rule:evenodd;stroke:none;stroke-width:1px;stroke-linecap:butt;stroke-linejoin:miter;stroke-opacity:1" />
        <path
           inkscape:export-ydpi="90"
           inkscape:export-xdpi="90"
           style="fill:#000000;fill-rule:evenodd;stroke:none;stroke-width:1px;stroke-linecap:butt;stroke-linejoin:miter;stroke-opacity:1"
           d="m 444.24571,570.0916 c -0.71564,-0.14466 -1.44155,-0.26196 -2.17609,-0.35164 -1.85059,3.48802 -2.63321,7.52148 -2.21203,11.43858 0.44974,4.1826 2.26736,8.18742 5.10379,11.27112 1.10892,1.18301 2.53245,2.3985 4.33041,3.03232 0.90796,0.30664 1.90672,0.46114 2.92132,0.37242 1.01452,-0.0886 2.0404,-0.42562 2.91608,-1.04587 0.8208,-0.5833 1.43174,-1.36273 1.84444,-2.17948 0.41267,-0.81697 0.63563,-1.68035 0.73764,-2.50587 0.22439,-1.61347 7e-4,-3.21995 -0.1694,-4.54885 -0.17904,-1.39807 -0.30966,-2.59974 -0.11701,-3.73211 0.0815,-0.55605 0.24084,-1.07372 0.48496,-1.51873 0.24381,-0.44492 0.57723,-0.81806 0.96341,-1.06713 0.35736,-0.23289 0.80783,-0.387 1.32086,-0.46039 0.51418,-0.0734 1.06409,-0.0642 1.66142,-0.0106 1.09169,0.12183 2.58583,0.45419 3.95612,0.40399 0.94118,-0.0435 1.88823,-0.2579 2.75508,-0.67479 0.86692,-0.41685 1.64779,-1.03759 2.22143,-1.82841 0.57373,-0.79083 0.93062,-1.74786 0.96973,-2.7344 0.0392,-0.98669 -0.24737,-1.98903 -0.84131,-2.78473 -0.69102,-0.93313 -1.7172,-1.48548 -2.6668,-1.84549 -1.36652,-0.51785 -1.50586,-0.42096 -2.76408,-0.91113 -0.85721,-0.33379 -1.63531,-0.80217 -2.11343,-1.48722 -0.24945,-0.3349 -0.42269,-0.72731 -0.47468,-1.13405 -0.0521,-0.40653 0.0211,-0.83505 0.22895,-1.18827 0.17375,-0.30292 0.45057,-0.55736 0.7836,-0.70808 0.33272,-0.15058 0.72233,-0.19696 1.09631,-0.12125 0.37362,0.0756 0.73111,0.27377 1.00112,0.5656 0.26974,0.29156 0.45095,0.67611 0.5014,1.08662 6.5e-4,-0.41319 -0.13173,-0.83437 -0.38222,-1.1834 -0.25025,-0.34869 -0.6169,-0.62296 -1.03928,-0.765 -0.42198,-0.14191 -0.89617,-0.15063 -1.33729,-0.0145 -0.4407,0.13601 -0.84418,0.41521 -1.13244,0.7961 -0.33577,0.45111 -0.4971,1.0195 -0.48619,1.58182 0.0108,0.56207 0.18786,1.11043 0.46955,1.58824 0.58376,0.94028 1.53494,1.5527 2.46669,1.97351 0.53952,0.24374 2.27795,0.86429 2.7183,1.05835 0.84921,0.37443 1.57162,0.8521 2.00231,1.50596 0.35608,0.54802 0.50634,1.23082 0.43749,1.88642 -0.0687,0.65562 -0.35104,1.29235 -0.77838,1.80785 -0.42725,0.51558 -1.00007,0.91788 -1.63485,1.17448 -0.63477,0.2567 -1.33476,0.37245 -2.03909,0.36024 -1.18203,-0.005 -2.19505,-0.31948 -3.63371,-0.53899 -0.66822,-0.11478 -1.40009,-0.19645 -2.15728,-0.15213 -0.75852,0.0445 -1.57072,0.21948 -2.32349,0.61816 -0.82149,0.4377 -1.48655,1.0952 -1.97128,1.83337 -0.48474,0.73795 -0.79358,1.55436 -0.97605,2.36252 -0.33478,1.59622 -0.1936,3.20949 -0.0697,4.57427 0.13021,1.43493 0.23704,2.62842 0.0348,3.76251 -0.111,0.54836 -0.29057,1.03615 -0.53936,1.44218 -0.24915,0.40608 -0.5614,0.71781 -0.89447,0.91084 -0.35051,0.20493 -0.78827,0.3208 -1.24915,0.32342 -0.46076,0.003 -0.95125,-0.10276 -1.4307,-0.30649 -0.97664,-0.38651 -1.88237,-1.14923 -2.76102,-2.15504 -2.24653,-2.5106 -3.6605,-5.75506 -3.9731,-9.09262 -0.29259,-3.12397 0.37861,-6.33363 1.88201,-9.07561 -0.50634,-0.5135 -0.99535,-1.04994 -1.4653,-1.60867 z"
           id="path4225"
           inkscape:path-effect="#path-effect4227;#path-effect4229"
           inkscape:original-d="m 444.24571,570.0916 c 0,0 -6.11546,11.8881 2.13603,21.06748 0.99604,1.10806 19.05868,14.91996 7.80434,2.24849 -11.25434,-12.67148 4.62379,-24.05592 4.08007,-15.21893 -0.54372,8.837 4.37448,0.9632 7.52644,0.003 3.15194,-0.96002 7.09297,-4.16192 4.55988,-6.62566 -2.5331,-2.46374 -6.42197,-8.90094 -7.48035,-7.13702 -1.05837,1.76392 3.63683,0.99484 3.63683,0.99484"
           inkscape:connector-curvature="0"
           sodipodi:nodetypes="cssssssc" />
        <path
           inkscape:export-ydpi="90"
           inkscape:export-xdpi="90"
           style="fill:#000000;fill-rule:evenodd;stroke:none;stroke-width:1px;stroke-linecap:butt;stroke-linejoin:miter;stroke-opacity:1"
           d="m 366.40357,466.82661 c -0.0486,-0.75929 -0.0721,-1.51678 -0.071,-2.27127 -2.60909,-0.61062 -5.07861,-1.87327 -7.10885,-3.64896 -2.16873,-1.89682 -3.84035,-4.38392 -4.78024,-7.13191 -0.56047,-1.57879 -0.7857,-3.05995 -0.44935,-4.30858 0.14568,-0.62631 0.43592,-1.19005 0.83125,-1.60424 0.39487,-0.41518 0.91745,-0.68571 1.42856,-0.74707 0.63804,-0.0665 1.37803,0.20424 1.91691,0.75184 0.53575,0.54599 0.87168,1.35693 0.90978,2.23052 0.11972,1.18009 -0.0698,0.16812 0.0569,1.61195 0.0504,0.32985 0.13179,0.68807 0.27844,1.04094 0.14673,0.35382 0.36229,0.70457 0.6635,0.99426 0.3673,0.36819 0.82101,0.58588 1.25782,0.68794 0.43746,0.10186 0.86972,0.0924 1.25752,0.0276 0.75919,-0.085 1.45995,-0.39693 2.03573,-0.63722 0.83739,-0.33094 1.75225,-0.65142 2.5889,-1.12079 0.84578,-0.47434 1.63725,-1.12564 2.10769,-1.9995 0.44553,-0.83172 0.55632,-1.81382 0.32802,-2.69449 -0.22862,-0.88186 -0.79356,-1.65152 -1.53142,-2.1261 0.68853,0.54561 1.14709,1.3445 1.2775,2.17921 0.13059,0.83585 -0.0672,1.7011 -0.51974,2.37573 -0.4721,0.70786 -1.21345,1.21629 -2.01211,1.5701 -0.80845,0.35833 -1.66796,0.57081 -2.57387,0.83378 -0.66928,0.18087 -1.2199,0.33822 -1.77404,0.32432 -0.26879,-0.0288 -0.50179,-0.0989 -0.68763,-0.20775 -0.18571,-0.10965 -0.31066,-0.24865 -0.36713,-0.38453 -0.0373,-0.10995 -0.0587,-0.24822 -0.0568,-0.39766 0.001,-0.1513 0.0227,-0.32371 0.0616,-0.51851 -0.0268,0.30296 0.20585,-1.58034 0.203,-1.54136 0.0526,-1.42696 -0.37607,-2.94164 -1.35618,-4.1273 -0.97777,-1.18204 -2.51004,-1.99894 -4.17283,-1.98398 -1.33218,0.003 -2.60115,0.53116 -3.57652,1.35177 -0.97577,0.82038 -1.65504,1.91017 -2.04799,3.04879 -0.74206,2.27991 -0.36129,4.64472 0.22229,6.57452 1.06847,3.4225 3.0501,6.56232 5.7012,9.01044 2.48252,2.29246 5.53758,3.96538 8.82218,4.8284 0.40209,-0.65425 0.78122,-1.31822 1.13677,-1.99089 z"
           id="path4231"
           inkscape:path-effect="#path-effect4233;#path-effect4235"
           inkscape:original-d="m 366.40357,466.82661 c 0,0 -11.99858,3.88701 -13.81011,-12.45004 -0.17511,-1.57925 -10.16141,-20.36156 3.60634,-8.81749 19.84019,16.63572 -23.92905,-16.13 4.17785,4.54682 3.34096,2.45778 -1.91619,5.68255 0.39549,3.05234 2.31191,-2.63047 2.50753,-3.4023 3.68993,0.17314 1.18241,3.57545 8.97679,-1.76892 4.64129,-2.76209 -2.12256,-0.48624 -0.98058,-4.68776 -0.98058,-4.68776"
           inkscape:connector-curvature="0"
           sodipodi:nodetypes="cssssssc" />
        <path
           inkscape:export-ydpi="90"
           inkscape:export-xdpi="90"
           style="fill:#000000;fill-rule:evenodd;stroke:none;stroke-width:1px;stroke-linecap:butt;stroke-linejoin:miter;stroke-opacity:1"
           d="m 288.21761,550.0492 c -1.08412,-0.28028 -2.16234,-0.57177 -3.23447,-0.87435 -5.24109,5.56472 -10.99245,10.65418 -17.16007,15.18244 -2.29754,1.72209 -4.45219,3.20281 -6.78093,4.11048 -2.3109,0.90141 -4.72225,1.14552 -6.74897,0.49227 -1.02214,-0.30659 -1.94959,-0.8414 -2.65598,-1.54967 -0.70701,-0.70827 -1.19759,-1.60837 -1.37175,-2.53425 -0.1749,-0.92655 -0.0242,-1.90521 0.41561,-2.68169 0.43968,-0.77791 1.20089,-1.37241 2.02533,-1.58373 0.81717,-0.21092 1.80777,-0.10006 3.06769,0.22183 1.11739,0.28588 2.71101,0.82334 4.2483,0.98139 0.82016,0.0629 1.7005,0.0331 2.57767,-0.17894 0.87792,-0.21198 1.75598,-0.61256 2.4902,-1.24652 0.73457,-0.63369 1.3115,-1.5031 1.53745,-2.50184 0.22654,-0.99858 0.0785,-2.10379 -0.49988,-2.9975 -0.0545,-0.008 -0.10513,-0.008 -0.15195,-0.003 -0.54898,-0.8215 -0.92354,-1.70182 -0.98895,-2.57666 -0.0543,-0.43661 -0.0306,-0.88 0.0824,-1.29281 0.11274,-0.41273 0.3197,-0.80202 0.60784,-1.11238 0.46938,-0.47012 1.16013,-0.76137 1.93368,-0.86722 0.77446,-0.10559 1.58314,-0.0312 2.43673,0.0992 0.83193,0.12716 1.72749,0.3112 2.617,0.38004 0.90344,0.07 1.84454,0.0223 2.71219,-0.30243 1.09494,-0.39777 2.0015,-1.2299 2.48851,-2.24939 0.48762,-1.02074 0.54908,-2.21476 0.19273,-3.25137 0.27447,1.06263 0.11078,2.21167 -0.42089,3.13153 -0.53233,0.92101 -1.42683,1.60441 -2.41839,1.87861 -0.78888,0.20912 -1.63456,0.1724 -2.45796,0.0259 -0.83749,-0.14894 -1.63318,-0.39954 -2.50638,-0.62281 -0.8523,-0.21789 -1.78508,-0.40806 -2.74636,-0.37383 -0.9625,0.0346 -2.01229,0.30969 -2.85148,0.99006 -0.55105,0.42703 -0.98223,0.99572 -1.27073,1.62567 -0.28854,0.62973 -0.43457,1.31387 -0.45998,1.99411 -0.008,1.35834 0.4566,2.63843 1.0669,3.72671 -0.0238,0.0436 -0.051,0.0814 -0.083,0.11189 0.11153,0.27402 0.11256,0.63315 -0.0186,0.94456 -0.12896,0.3114 -0.38415,0.60832 -0.71668,0.81456 -0.33199,0.20722 -0.75004,0.34076 -1.20619,0.3841 -0.45712,0.044 -0.95611,0.003 -1.4834,-0.10909 -1.15894,-0.19717 -2.13327,-0.62879 -3.62509,-1.11328 -1.35253,-0.43888 -3.12037,-0.88456 -4.97111,-0.55329 -2.01864,0.36488 -3.80023,1.60754 -4.91037,3.28327 -1.11057,1.67578 -1.53799,3.72454 -1.30648,5.67137 0.23127,1.94719 1.10001,3.75987 2.35251,5.19204 1.25249,1.4325 2.86727,2.47856 4.58879,3.11727 3.45934,1.23801 7.17481,0.82399 10.30646,-0.28918 3.1147,-1.10666 5.83625,-2.90933 8.23488,-4.59864 6.49358,-4.66556 12.56363,-9.92582 18.1103,-15.69491 -0.33824,-1.07361 -0.68736,-2.14069 -1.04722,-3.20106 z"
           id="path4237"
           inkscape:path-effect="#path-effect4239;#path-effect4241"
           inkscape:original-d="m 288.21761,550.0492 c 0,0 3.30148,16.70127 -18.72881,16.60203 -2.12961,-0.01 -34.77229,8.60393 -17.19124,-8.06136 10.63187,-10.07807 -0.12633,-6.42499 12.72123,-3.04457 5.41754,1.42545 3.10596,3.45185 -0.0345,-0.0572 -3.14077,-3.5094 -10.85323,-14.26885 0.18255,-6.16417 4.07097,2.98972 12.12971,-6.01829 10.13089,-0.35484 -0.97857,2.77268 2.76026,-5.25545 2.76026,-5.25545"
           inkscape:connector-curvature="0"
           sodipodi:nodetypes="cssssssc" />
      </g>
    </g>
    <g
       id="g4411"
       transform="translate(-34.250512,0)"
       inkscape:export-xdpi="90"
       inkscape:export-ydpi="90">
      <g
         id="g4371"
         transform="matrix(-0.37854999,0,0,0.37854999,601.75882,119.4665)">
        <path
           sodipodi:nodetypes="ccccc"
           inkscape:connector-curvature="0"
           id="path4373"
           d="m 261.62951,99.889369 c 55.85152,15.870911 94.53195,11.453171 159.80613,-2.828427 l 49.63776,85.697708 c -97.42889,20.00718 -180.22639,13.67786 -258.94137,0 z"
           style="fill:none;fill-rule:evenodd;stroke:#000000;stroke-width:1px;stroke-linecap:butt;stroke-linejoin:miter;stroke-opacity:1" />
        <path
           sodipodi:nodetypes="cccc"
           inkscape:connector-curvature="0"
           id="path4375"
           d="M 211.85616,182.89684 195,285.83708 c 127.87337,-7.53725 155.5625,-7.8281 287.92893,0 L 471.11754,182.71415"
           style="fill:url(#linearGradient4379);fill-opacity:1;fill-rule:evenodd;stroke:#000000;stroke-width:1px;stroke-linecap:butt;stroke-linejoin:miter;stroke-opacity:1" />
        <path
           sodipodi:nodetypes="cccccccc"
           inkscape:connector-curvature="0"
           id="path4377"
           d="m 257.87951,140.87339 c 13.11002,11.01985 26.95579,21.30395 40.70584,31.68377 0.65698,-7.3855 0.7898,-15.29515 0.78554,-23.34189 41.45204,8.6618 80.88079,6.19545 121.14444,8.32107 -4.6602,-8.0829 -12.79504,-17.69449 -15.75,-25.70584 -35.20873,2.72681 -65.9121,6.99599 -104.03048,-0.16422 -0.43352,-5.05519 -1.10599,-10.03073 0.38649,-15.72792 z"
           style="fill:#fff6d5;fill-rule:evenodd;stroke:#000000;stroke-width:1px;stroke-linecap:butt;stroke-linejoin:miter;stroke-opacity:1" />
      </g>
      <g
         transform="matrix(0.37854999,0,0,0.37854999,210.64017,118.9665)"
         id="g4366">
        <path
           style="fill:none;fill-rule:evenodd;stroke:#000000;stroke-width:1px;stroke-linecap:butt;stroke-linejoin:miter;stroke-opacity:1"
           d="m 261.62951,99.889369 c 55.85152,15.870911 94.53195,11.453171 159.80613,-2.828427 l 49.63776,85.697708 c -97.42889,20.00718 -180.22639,13.67786 -258.94137,0 z"
           id="path4352"
           inkscape:connector-curvature="0"
           sodipodi:nodetypes="ccccc" />
        <path
           style="fill:url(#linearGradient4364);fill-opacity:1;fill-rule:evenodd;stroke:#000000;stroke-width:1px;stroke-linecap:butt;stroke-linejoin:miter;stroke-opacity:1"
           d="M 211.85616,182.89684 195,285.83708 c 127.87337,-7.53725 155.5625,-7.8281 287.92893,0 L 471.11754,182.71415"
           id="path4354"
           inkscape:connector-curvature="0"
           sodipodi:nodetypes="cccc" />
        <path
           style="fill:#fff6d5;fill-rule:evenodd;stroke:#000000;stroke-width:1px;stroke-linecap:butt;stroke-linejoin:miter;stroke-opacity:1"
           d="m 257.87951,140.87339 c 13.11002,11.01985 26.95579,21.30395 40.70584,31.68377 0.65698,-7.3855 0.7898,-15.29515 0.78554,-23.34189 41.45204,8.6618 80.88079,6.19545 121.14444,8.32107 -4.6602,-8.0829 -12.79504,-17.69449 -15.75,-25.70584 -35.20873,2.72681 -65.9121,6.99599 -104.03048,-0.16422 -0.43352,-5.05519 -1.10599,-10.03073 0.38649,-15.72792 z"
           id="path4356"
           inkscape:connector-curvature="0"
           sodipodi:nodetypes="cccccccc" />
      </g>
      <g
         transform="translate(199.40411,11.313709)"
         id="g4407">
        <path
           style="fill:none;fill-rule:evenodd;stroke:#000000;stroke-width:0.52653402px;stroke-linecap:butt;stroke-linejoin:miter;stroke-opacity:1"
           d="m 327.7681,232.00037 c -59.23777,4.14849 -175.21671,3.70086 -244.448443,-0.0322 l -16.58481,10.37972 c 103.335963,5.22967 191.153453,3.57525 274.640863,0 z"
           id="path4383"
           inkscape:connector-curvature="0"
           sodipodi:nodetypes="ccccc" />
        <path
           style="fill:url(#linearGradient4389);fill-opacity:1;fill-rule:evenodd;stroke:#000000;stroke-width:0.52653402px;stroke-linecap:butt;stroke-linejoin:miter;stroke-opacity:1"
           d="m 341.66832,242.38399 17.87813,26.90756 c -135.62626,-1.97016 -164.99417,-2.04619 -305.385923,0 l 12.5275,-26.95531"
           id="path4385"
           inkscape:connector-curvature="0"
           sodipodi:nodetypes="cccc" />
      </g>
    </g>
    <text
       inkscape:export-ydpi="90"
       inkscape:export-xdpi="90"
       xml:space="preserve"
       style="font-style:normal;font-variant:normal;font-weight:normal;font-stretch:normal;font-size:72px;line-height:125%;font-family:'Caesar Dressing';-inkscape-font-specification:'Caesar Dressing';text-align:center;letter-spacing:0px;word-spacing:0px;text-anchor:middle;fill:#000000;fill-opacity:1;stroke:none;stroke-width:1px;stroke-linecap:butt;stroke-linejoin:miter;stroke-opacity:1"
       x="370.47986"
       y="140.31067"
       id="text4399"
       sodipodi:linespacing="125%"><tspan
         sodipodi:role="line"
         x="370.47986"
         y="140.31067"
         style="font-style:normal;font-variant:normal;font-weight:normal;font-stretch:normal;font-size:30px;font-family:Calligraffiti;-inkscape-font-specification:Calligraffiti"
         id="tspan4401">Left &amp; Right Arrows to rotate</tspan></text>
    <text
       sodipodi:linespacing="125%"
       id="text4403"
       y="324.15845"
       x="370.71423"
       style="font-style:normal;font-variant:normal;font-weight:normal;font-stretch:normal;font-size:72px;line-height:125%;font-family:'Caesar Dressing';-inkscape-font-specification:'Caesar Dressing';text-align:center;letter-spacing:0px;word-spacing:0px;text-anchor:middle;fill:#000000;fill-opacity:1;stroke:none;stroke-width:1px;stroke-linecap:butt;stroke-linejoin:miter;stroke-opacity:1"
       xml:space="preserve"
       inkscape:export-xdpi="90"
       inkscape:export-ydpi="90"><tspan
         id="tspan4405"
         style="font-style:normal;font-variant:normal;font-weight:normal;font-stretch:normal;font-size:30px;font-family:Calligraffiti;-inkscape-font-specification:Calligraffiti"
         y="324.15845"
         x="370.71423"
         sodipodi:role="line">Space to fire phage virus</tspan></text>
  </g>
</svg>
