<?xml version="1.0" encoding="UTF-8" standalone="no"?>
<svg
   xmlns:dc="http://purl.org/dc/elements/1.1/"
   xmlns:cc="http://creativecommons.org/ns#"
   xmlns:rdf="http://www.w3.org/1999/02/22-rdf-syntax-ns#"
   xmlns:svg="http://www.w3.org/2000/svg"
   xmlns="http://www.w3.org/2000/svg"
   xmlns:sodipodi="http://sodipodi.sourceforge.net/DTD/sodipodi-0.dtd"
   xmlns:inkscape="http://www.inkscape.org/namespaces/inkscape"
   version="1.1"
   id="svg2"
   viewBox="0 0 351.9627 184.51705"
   height="52.074814mm"
   width="99.331696mm"
   inkscape:version="0.91 r13725"
   sodipodi:docname="salmonella.svg"
   inkscape:export-filename="/home/nak/LD32/salmonella.png"
   inkscape:export-xdpi="90"
   inkscape:export-ydpi="90">
  <sodipodi:namedview
     pagecolor="#ffffff"
     bordercolor="#666666"
     borderopacity="1"
     objecttolerance="10"
     gridtolerance="10"
     guidetolerance="10"
     inkscape:pageopacity="0"
     inkscape:pageshadow="2"
     inkscape:window-width="1920"
     inkscape:window-height="1056"
     id="namedview4152"
     showgrid="false"
     fit-margin-top="0"
     fit-margin-left="0"
     fit-margin-right="0"
     fit-margin-bottom="0"
     inkscape:zoom="1"
     inkscape:cx="83.524217"
     inkscape:cy="-76.289225"
     inkscape:window-x="0"
     inkscape:window-y="0"
     inkscape:window-maximized="1"
     inkscape:current-layer="svg2" />
  <defs
     id="defs4" />
  <metadata
     id="metadata7">
    <rdf:RDF>
      <cc:Work
         rdf:about="">
        <dc:format>image/svg+xml</dc:format>
        <dc:type
           rdf:resource="http://purl.org/dc/dcmitype/StillImage" />
        <dc:title></dc:title>
      </cc:Work>
    </rdf:RDF>
  </metadata>
  <g
     id="g4166"
     transform="matrix(0.6265072,0,0,0.6265072,-66.779559,49.535257)">
    <path
       id="path4136"
       d="M 196.51783,4.0360632 C 308.21606,-0.89500429 401.61834,-3.5480117 479.88804,14.585699 524.19623,24.851125 539.52275,101.16263 464.26181,116.87012 378.58058,134.75241 298.75215,143.99647 154.21903,115.00866 73.504186,98.820363 102.2404,8.1980623 196.51783,4.0360632 Z"
       style="fill:#f0ce00;fill-opacity:0.58333333;fill-rule:evenodd;stroke:#000000;stroke-width:1px;stroke-linecap:butt;stroke-linejoin:miter;stroke-opacity:1"
       inkscape:connector-curvature="0" />
    <path
       id="path4160"
       d="m 344.6083,133.63335 c 1.1183,6.14676 4.0542,11.87286 8.29557,16.31648 4.24315,4.44546 9.75302,7.56266 15.63941,8.9193 5.8945,1.38975 14.99944,0.99951 19.39795,1.57749 2.85207,0.28603 5.53497,0.93903 7.7957,2.1942 2.25572,1.24919 4.10226,3.17739 4.92266,5.4313 0.66844,1.70964 0.78501,3.73628 0.43583,5.84866 -0.35022,2.11275 -1.13042,4.19583 -2.10834,6.33145 -2.06024,4.08709 -4.94307,8.44132 -5.88472,13.34404 -1.12743,5.72524 0.62555,11.82449 4.44318,16.00168 3.82455,4.18476 9.6089,6.33553 15.07199,5.76196 -5.49847,0.22615 -10.9407,-2.29152 -14.2776,-6.44431 -3.343,-4.16039 -4.51352,-9.86298 -3.19561,-14.85347 1.18443,-4.39677 4.03733,-8.02847 6.59295,-12.2912 1.32593,-2.0434 2.6079,-4.31094 3.42022,-6.82724 0.81206,-2.51799 1.17712,-5.41691 0.53934,-8.30087 -0.91171,-3.85264 -3.46994,-7.08061 -6.54638,-9.27722 -3.07029,-2.1945 -6.61688,-3.42322 -10.03294,-4.1545 -8.12029,-1.52914 -12.08131,-0.56031 -18.4583,-2.4481 -4.21736,-1.28193 -8.00621,-3.81398 -10.75595,-7.12496 -2.75089,-3.31233 -4.4809,-7.41528 -4.9437,-11.59149 z"
       style="fill:#000000;fill-rule:evenodd;stroke:none;stroke-width:1px;stroke-linecap:butt;stroke-linejoin:miter;stroke-opacity:1"
       inkscape:connector-curvature="0" />
    <path
       style="fill:#000000;fill-rule:evenodd;stroke:none;stroke-width:1px;stroke-linecap:butt;stroke-linejoin:miter;stroke-opacity:1"
       d="m 421.22168,124.8903 c 1.13825,6.62096 4.59331,12.71387 9.5623,17.04272 4.97231,4.33173 11.38156,6.82524 17.84472,7.03699 4.30931,0.0915 8.85308,-0.89458 12.19529,-1.34834 3.64901,-0.49694 6.96618,-0.53937 9.71822,0.57444 2.58123,1.02454 4.74538,3.07442 7.28343,5.6442 2.41086,2.44235 5.20694,5.35081 8.83311,7.01405 2.88831,1.28266 6.09787,1.66147 9.10466,1.13932 3.00936,-0.52259 5.79083,-1.94424 7.92219,-3.97796 2.13319,-2.03545 3.60054,-4.67003 4.21663,-7.44255 0.61661,-2.7749 0.37812,-5.67268 -0.615,-8.2203 0.65228,2.65784 0.48382,5.4523 -0.41728,7.92159 -0.90186,2.47142 -2.53262,4.61266 -4.57097,6.09915 -2.04011,1.48777 -4.48504,2.32257 -6.90027,2.4169 -2.4173,0.0944 -4.80832,-0.54705 -6.77599,-1.75975 -2.57917,-1.52843 -4.5577,-3.98999 -6.78458,-6.76399 -2.11981,-2.63915 -4.78455,-5.9147 -8.52001,-7.89024 -4.25229,-2.22602 -9.0554,-2.4243 -13.13909,-2.24951 -4.39784,0.18683 -7.58681,0.66434 -11.03202,0.26165 -4.47117,-0.45063 -8.72573,-2.48665 -11.81516,-5.5736 -3.09148,-3.08901 -5.04608,-7.24158 -5.47472,-11.46381 z"
       id="path4166"
       inkscape:connector-curvature="0" />
    <path
       id="path4172"
       d="m 483.18284,111.47911 c 2.12661,3.79268 5.50664,6.75807 9.3999,8.36826 3.89728,1.61186 8.25347,1.84054 12.18193,0.72986 3.21595,-0.94339 6.00689,-2.73896 8.43453,-4.43847 2.48757,-1.74176 4.74679,-3.47534 7.28772,-4.73636 4.51568,-2.07558 9.71757,-2.56277 14.86979,-2.08947 6.92286,0.70468 13.71876,3.09638 19.62436,6.95263 -5.68279,-4.17535 -12.41488,-6.99557 -19.47367,-8.11043 -5.19468,-0.87134 -10.78258,-0.81874 -15.91155,1.08885 -2.93152,1.00116 -5.64516,2.56463 -8.21628,3.90183 -2.63856,1.372 -5.11179,2.49194 -7.67065,2.88208 -3.0003,0.49551 -6.10569,-0.059 -8.64935,-1.46685 -2.54629,-1.40926 -4.54905,-3.67026 -5.61974,-6.23235 z"
       style="fill:#000000;fill-rule:evenodd;stroke:none;stroke-width:1px;stroke-linecap:butt;stroke-linejoin:miter;stroke-opacity:1"
       inkscape:connector-curvature="0" />
    <path
       style="fill:#000000;fill-rule:evenodd;stroke:none;stroke-width:1px;stroke-linecap:butt;stroke-linejoin:miter;stroke-opacity:1"
       d="m 482.84293,15.067934 c 0.18543,-2.770608 1.35023,-5.5574448 3.3046,-7.7138356 1.95236,-2.1541798 4.71202,-3.68234 7.71148,-4.182809 2.54768,-0.4575633 5.25011,-0.1968121 8.19044,0.2490632 2.86528,0.4347408 5.93853,1.0375549 9.03628,1.037847 5.47023,0.1480696 10.77541,-1.6076188 15.40992,-4.11064422 6.31997,-3.33577908 11.77976,-8.17990998 15.80866,-13.96742538 -4.34287,5.5575264 -10.0015,10.0167284 -16.32533,12.92041772 C 521.25601,1.4131703 516.17572,2.6328469 511.23162,2.1276349 508.41954,1.7552287 505.72137,0.84460509 502.80445,1.0713882e-5 499.9579,-0.8239608 496.7365,-1.6214694 493.38823,-1.4751632 c -4.07661,0.2181993 -8.12526,1.84211787 -11.2927,4.626738 -3.16419,2.7817577 -5.4048,6.6802034 -6.19191,10.9565742 z"
       id="path4178"
       inkscape:connector-curvature="0" />
    <path
       id="path4184"
       d="m 516.82154,62.739094 c 11.51049,-1.47124 22.36897,-6.83622 30.46064,-14.938286 4.40997,-4.542827 8.1596,-10.19896 11.45257,-14.45082 3.50674,-4.529339 7.20702,-8.434688 11.67227,-10.703892 5.32729,-2.660486 11.88728,-3.011619 18.40129,-1.736334 6.52885,1.279574 12.75344,4.016359 19.21729,7.01506 6.37779,2.958877 12.99051,6.16036 20.06131,8.040579 7.10658,1.890301 14.84091,2.397947 21.89727,-0.01651 5.53526,-1.943949 10.34663,-5.647827 13.59712,-10.356048 3.25261,-4.711278 4.92403,-10.397556 4.78668,-15.9755518 -0.31046,5.5746918 -2.42288,10.9567398 -5.86153,15.1696598 -3.4409,4.215672 -8.19302,7.247125 -13.31524,8.59478 -6.47232,1.765485 -13.49031,0.886534 -19.95027,-1.277835 -6.49652,-2.175996 -12.52854,-5.572716 -18.8003,-8.979498 -6.18995,-3.362239 -12.84643,-6.847254 -20.11712,-8.758613 -7.28765,-1.914632 -15.66492,-2.24965 -23.2425,0.937977 -6.3829,2.646349 -11.40125,7.403657 -15.54909,12.000266 -4.38566,4.858896 -7.51363,9.048825 -11.70464,12.755302 -6.69025,6.130628 -15.41621,9.922316 -24.30763,10.659282 z"
       style="fill:#000000;fill-rule:evenodd;stroke:none;stroke-width:1px;stroke-linecap:butt;stroke-linejoin:miter;stroke-opacity:1"
       inkscape:connector-curvature="0" />
    <path
       sodipodi:nodetypes="csccccccscsccccccscc"
       style="fill:#000000;fill-rule:evenodd;stroke:none;stroke-width:1px;stroke-linecap:butt;stroke-linejoin:miter;stroke-opacity:1"
       d="m 348.04218,0.3642005 c 0.57585,-4.2012014 1.69319,-6.8082172 4.39659,-10.2111827 2.70242,-3.4017488 6.38064,-6.1091458 10.5386,-7.6952038 5.78439,-2.146645 11.15426,-2.024821 18.50984,-3.478056 3.37568,-0.765345 6.85292,-1.873344 10.02584,-3.734366 3.17947,-1.863662 6.03901,-4.517917 7.77215,-7.905036 2.35959,-4.466489 2.39884,-9.594221 2.04179,-13.985638 -0.36895,-4.528341 -1.10519,-8.676981 -0.63323,-12.863166 0.78288,-6.113906 4.35123,-11.931136 9.63078,-15.441992 5.27274,-3.506328 12.17935,-4.649264 18.4529,-2.914978 -6.15112,-2.102405 -13.29637,-1.432481 -19.06722,1.92679 -5.76344,3.354961 -10.04045,9.335695 -11.3143,16.062018 -0.90919,4.462565 -0.5265,9.13984 -0.55712,13.364235 -0.0325,4.366716 -0.55095,8.401366 -2.58342,11.523989 -1.51454,2.234362 -3.83051,3.947252 -6.41721,5.067289 -2.59353,1.124461 -5.48396,1.703123 -8.51165,2.016565 -5.44638,0.740408 -13.38065,0.650139 -19.91666,2.632582 -5.66262,1.676999 -10.90253,4.908397 -14.99312,9.314226 -4.08911,4.404235 -7.001,9.94818 -8.29851,15.92510099 z"
       id="path4190"
       inkscape:connector-curvature="0" />
    <path
       id="path4196"
       d="m 428.92537,6.0043439 c 0.28746,-4.2341845 2.10235,-8.4496981 5.08899,-11.6401891 2.98465,-3.1883694 7.16888,-5.3652708 11.62252,-5.9649108 3.42984,-0.517464 6.63298,-0.146671 11.0346,-0.106755 4.08726,0.03836 8.88108,-0.320114 13.05668,-2.686864 3.66743,-2.099144 6.22134,-5.461828 8.25187,-8.170264 2.13303,-2.846796 4.02828,-5.373025 6.55498,-6.986717 1.92611,-1.27771 4.29438,-1.998629 6.71348,-1.984969 2.41704,0.01364 4.88848,0.766366 6.97712,2.18521 2.08684,1.417619 3.78817,3.503226 4.77203,5.943173 0.98302,2.437831 1.24468,5.225114 0.68148,7.903244 0.90753,-2.579346 1.04915,-5.483482 0.34025,-8.236261 -0.7083,-2.750408 -2.26278,-5.33453 -4.46273,-7.297651 -2.19807,-1.961425 -5.02545,-3.289431 -8.05057,-3.711275 -3.02255,-0.421493 -6.21768,0.06425 -9.06156,1.442619 -3.56864,1.783369 -6.26606,4.783548 -8.59404,7.305029 -2.45086,2.653071 -4.54537,4.774049 -7.09096,5.88419 -2.71332,1.205063 -6.03004,1.273385 -9.69362,0.898524 -3.35549,-0.34194 -7.92964,-1.175728 -12.23351,-0.940485 -6.45248,0.427388 -12.77494,3.13346 -17.59986,7.628764 -4.82172,4.492326 -8.07146,10.6971766 -8.98804,17.3524503 z"
       style="fill:#000000;fill-rule:evenodd;stroke:none;stroke-width:1px;stroke-linecap:butt;stroke-linejoin:miter;stroke-opacity:1"
       inkscape:connector-curvature="0" />
    <path
       id="path4202"
       d="m 274.77219,1.4893461 c -0.1307,-4.5273791 1.0349,-9.1764277 3.38312,-13.2134731 2.34709,-4.035079 5.8911,-7.46844 10.13811,-9.724865 4.13053,-2.215427 8.56611,-3.225695 13.79503,-4.932678 4.99646,-1.629912 10.38137,-3.90452 14.2433,-8.151193 3.27399,-3.65222 4.9803,-8.31202 5.67306,-12.798914 0.69212,-4.486859 0.4549,-9.0215 0.0794,-13.359046 -0.40863,-5.397021 -1.04619,-10.766039 -1.90863,-16.087908 0.36702,5.378788 0.50434,10.762644 0.41326,16.132005 -0.12208,4.382185 -0.40198,8.648838 -1.51178,12.698151 -1.11069,4.049885 -3.0562,7.713452 -5.93126,10.25467 -3.29882,2.971774 -7.83383,4.480535 -12.64306,5.542075 -4.57592,1.011214 -10.28602,1.816758 -15.37065,3.923608 -5.71545,2.390808 -10.80214,6.422791 -14.48281,11.581702 -3.67889,5.156395 -5.92598,11.3965568 -6.34556,17.8592205 z"
       style="fill:#000000;fill-rule:evenodd;stroke:none;stroke-width:1px;stroke-linecap:butt;stroke-linejoin:miter;stroke-opacity:1"
       inkscape:connector-curvature="0" />
    <path
       sodipodi:nodetypes="cscccccccscscccccccscc"
       style="fill:#000000;fill-rule:evenodd;stroke:none;stroke-width:1px;stroke-linecap:butt;stroke-linejoin:miter;stroke-opacity:1"
       d="m 196.87763,3.5423495 c -0.84677,-4.22871023 -0.0761,-8.8725064 2.18726,-12.6979865 2.26165,-3.82249 6.04192,-6.845557 10.4051,-8.217756 5.0364,-1.573059 9.7864,-1.024317 16.51291,-1.580255 3.10223,-0.343408 6.38029,-0.966383 9.47829,-2.321449 3.10603,-1.3573 6.0397,-3.494268 7.98931,-6.470462 1.42893,-2.259149 2.15709,-4.788076 2.44845,-7.197824 0.29074,-2.408626 0.16591,-4.793543 -0.0871,-7.036743 -0.34078,-4.598642 -1.18687,-8.735208 -0.76376,-12.988831 0.70331,-6.212527 4.35645,-12.136263 9.76742,-15.588106 5.40391,-3.447335 12.47077,-4.356756 18.70817,-2.273532 -6.11005,-2.408345 -13.38559,-1.939235 -19.24713,1.375655 -5.85395,3.310597 -10.16351,9.395199 -11.3022,16.192274 -0.80652,4.469949 -0.27993,9.187536 -0.30217,13.393984 -0.0994,2.160482 -0.3341,4.210117 -0.8854,6.127248 -0.55175,1.916459 -1.40327,3.610667 -2.57017,4.91518 -1.47992,1.738123 -3.62373,2.973607 -5.97337,3.672345 -2.35838,0.703066 -4.93868,0.907567 -7.65978,0.880644 -4.92071,0.110033 -12.10083,-0.710087 -18.31781,0.81735 -6.44156,1.57681 -12.29805,5.597722 -16.11585,11.183567 -3.81483,5.5814979 -5.64568,12.2397261 -4.74087,19.0749372 z"
       id="path4208"
       inkscape:connector-curvature="0" />
    <path
       style="fill:#000000;fill-rule:evenodd;stroke:none;stroke-width:1px;stroke-linecap:butt;stroke-linejoin:miter;stroke-opacity:1"
       d="m 258.86447,131.12119 c -0.15726,6.47437 1.52552,12.88976 4.73088,18.35312 3.20691,5.46603 7.91456,9.93475 13.39454,12.82475 4.87696,2.55099 10.49268,3.86159 14.96043,5.27605 4.69566,1.48536 9.0784,3.39177 12.09962,6.64533 2.63749,2.78704 4.24921,6.60922 4.99504,10.74188 0.745,4.13202 0.64404,8.40666 0.37561,12.78231 -0.38717,5.35616 -1.00312,10.70643 -1.8474,16.03121 1.33266,-5.22399 2.44556,-10.51497 3.33292,-15.85419 0.76009,-4.28691 1.39996,-8.78244 1.10994,-13.31309 -0.29067,-4.53075 -1.57547,-9.32393 -4.51141,-13.25304 -3.46864,-4.57354 -8.62973,-7.31839 -13.46129,-9.38653 -5.05625,-2.16559 -9.38431,-3.56663 -13.30127,-6.14089 -4.02933,-2.62546 -7.2537,-6.36063 -9.23234,-10.58859 -1.9796,-4.23002 -2.72679,-8.96436 -2.19366,-13.46214 z"
       id="path4214"
       inkscape:connector-curvature="0" />
    <path
       id="path4220"
       d="m 178.47572,119.27219 c -1.10767,6.80528 0.38825,13.88613 4.03541,19.5786 3.65,5.69693 9.38432,9.89022 15.77615,11.65789 6.1688,1.71165 13.37012,1.10542 18.28539,1.36174 2.7207,0.054 5.29377,0.33515 7.63021,1.10804 2.32781,0.76831 4.43394,2.067 5.86151,3.84836 1.12762,1.33863 1.92839,3.05741 2.42289,4.98943 0.49405,1.93268 0.66771,3.98839 0.7028,6.15086 -0.10287,4.20526 -0.76952,8.90509 -0.0963,13.39705 0.93605,6.82794 5.06276,13.03801 10.81567,16.52123 5.76035,3.48774 13.01874,4.17301 19.19769,1.94743 -6.29659,1.89681 -13.33327,0.77764 -18.63228,-2.82889 -5.30592,-3.61122 -8.78127,-9.64098 -9.29951,-15.87167 -0.29644,-4.26433 0.67229,-8.3739 1.14969,-12.96037 0.31958,-2.23469 0.51527,-4.61484 0.2963,-7.03104 -0.21957,-2.41735 -0.87219,-4.96682 -2.23332,-7.26746 -1.86023,-3.03286 -4.72905,-5.25613 -7.79335,-6.70519 -3.05632,-1.44664 -6.31442,-2.16679 -9.40506,-2.6023 -6.707,-0.75573 -11.47122,-0.34849 -16.45862,-2.07063 -4.32043,-1.50134 -8.00914,-4.6355 -10.1561,-8.52356 -2.14864,-3.89109 -2.78083,-8.55575 -1.80868,-12.75742 z"
       style="fill:#000000;fill-rule:evenodd;stroke:none;stroke-width:1px;stroke-linecap:butt;stroke-linejoin:miter;stroke-opacity:1"
       inkscape:connector-curvature="0" />
  </g>
</svg>
